<svg xmlns="http://www.w3.org/2000/svg" xmlns:xlink="http://www.w3.org/1999/xlink" xmlns:inkscape="http://www.inkscape.org/namespaces/inkscape" version="1.1" width="227.763" height="514.951" viewBox="0 0 227.763 514.951">
<defs>
<clipPath id="clip_1">
<path transform="matrix(1,0,0,-1,0,514.951)" d="M0 514.951H227.763V0H0Z"/>
</clipPath>
</defs>
<g inkscape:groupmode="layer" inkscape:label="Layer 1">
<g clip-path="url(#clip_1)">
<path transform="matrix(1,0,0,-1,227.6036,157.24039)" d="M0 0V27.227H.002C.002 108.485-113.76 140.989-113.76 157.24-113.76 140.989-227.522 108.485-227.522 27.227H-227.604V-70.284C-227.604-77.684-205.872-81.496-194.941-81.496V27.227H-195.019C-195.019 85.269-113.76 125.043-113.76 136.652-113.76 125.043-32.502 85.269-32.502 27.227H-32.503V0C-32.503 0-32.673-194.908-32.503-195.021-21.573-195.021 .159-191.208 .159-183.808V0Z" fill="url(#goldGrad)"/>
<path transform="matrix(1,0,0,-1,48.8346,401.1749)" d="M0 0C27.037 0 48.914 21.877 48.914 48.914H49.161V157.637C38.23 157.637 16.499 153.825 16.499 146.424V48.914H16.252C16.252 39.958 9.025 32.715 .08 32.67-8.866 32.715-16.093 39.958-16.093 48.914H-16.172V146.424C-16.172 153.825-37.904 157.637-48.835 157.637V48.914H-48.755C-48.755 21.965-26.948 .159 0 .159Z" fill="url(#goldGrad)"/>
<path transform="matrix(1,0,0,-1,195.1028,379.3824)" d="M0 0H-.003V-10.817-21.634H10.814 21.631 32.448V-10.817H21.631 10.814V-.053H10.867C10.867 2.928 13.272 5.338 16.249 5.353 19.226 5.338 21.631 2.928 21.631-.053H32.501C32.501 8.915 25.244 16.172 16.276 16.172V16.225C7.296 16.225 .029 8.973 0 0" fill="url(#goldGrad)"/>
<path transform="matrix(1,0,0,-1,91.7196,211.9762)" d="M0 0 7.047-7.871 19.659 7.944C21.921 10.781 23.219 14.285 24.536 17.822L45.339 3.489C48.99 .973 50.926-2.696 53.56-6.743 59.448-.164 64.343 5.798 68.429 12.372 68.429 12.372 69.54 14.275 69.752 14.699 72.06 20.597 68.86 25.647 64.688 30.096L42.086 46.072 23.653 20.765C20.747 25.419 18.4 28.112 14.976 31.004L-5.215 45.243-24.154 18.128C-15.376 12.325-6.733 7.521 0 0" fill="url(#goldGrad)"/>
<path transform="matrix(1,0,0,-1,114.893,177.87418)" d="M0 0 12.574 15.426C12.652 15.521 12.9 16.425 12.961 16.643 18.873 23.203 17.49 31.042 10.994 36.713L-11.547 53.082-30.618 25.419C-21.47 19.401-12.761 13.709-5.038 6.267Z" fill="url(#goldGrad)"/>
<path transform="matrix(1,0,0,-1,162.7558,243.538)" d="M0 0C-10.931 0-32.663-3.812-32.663-11.213V-108.723C-32.663-153.637-61.738-189.981-97.669-189.981V-194.909C-43.684-194.909 0-171.603 0-108.723Z" fill="url(#goldGrad)"/>
<path transform="matrix(1,0,0,-1,1.2913,514.6214)" d="M0 0C2.582-.491 4.947-.337 7.1 .461L7.192 48.411C3.873 48.227 1.044 47.397-1.291 45.921-.493 34.302-.062 18.995 0 0" fill="url(#goldGrad)"/>
<path transform="matrix(1,0,0,-1,55.5118,488.06529)" d="M0 0V14.754C2.028 15.061 4.487 15.216 7.377 15.216 10.941 15.216 13.647 14.661 15.491 13.556 17.335 12.449 18.258 10.481 18.258 7.654 18.258 4.888 17.366 2.613 15.583 .83 14.415 .277 11.803 0 7.746 0ZM26.28 7.931C26.28 17.274 19.978 21.946 7.377 21.946 4.549 21.946 1.521 21.762-1.706 21.394-4.933 21.025-7.132 20.532-8.299 19.918-7.624 8.668-7.254-6.855-7.192-26.649-4.365-27.078-1.968-26.925 0-26.188V-6.362H6.547L20.747-26.649C21.546-26.893 23.145-26.939 25.543-26.787 27.94-26.633 29.416-26.34 29.969-25.91L14.385-5.809C22.315-4.334 26.28 .246 26.28 7.931" fill="url(#goldGrad)"/>
<path transform="matrix(1,0,0,-1,114.4348,466.58009)" d="M0 0C-.369-.614-.553-1.691-.553-3.227-.553-4.764-.369-5.932 0-6.731H14.477C15.091-18.35 15.429-32.121 15.491-48.041 18.073-48.533 20.44-48.378 22.592-47.58V-6.731H37.714C38.144-5.994 38.344-4.841 38.314-3.273 38.282-1.706 38.084-.614 37.714 0Z" fill="url(#goldGrad)"/>
<path transform="matrix(1,0,0,-1,220.0176,487.0511)" d="M0 0H-25.082L-24.989 20.841C-28.309 20.778-31.137 19.948-33.473 18.351-32.675 6.732-32.244-8.545-32.183-27.479-29.54-27.907-27.173-27.785-25.082-27.109V-6.731H.184C.429-16.321 .553-23.236 .553-27.479 3.257-27.907 5.625-27.785 7.654-27.109L7.745 20.841C4.301 20.778 1.476 19.948-.738 18.351-.431 12.325-.184 6.209 0 0" fill="url(#goldGrad)"/>
</g>
</g>
</svg>
